#define image_width  7
#define image_height 9
static unsigned char image_bits[] = {
 0x94,0x94,0x88,0xaa,0xeb,0xff,0xeb,0xbe,0x9c};
